<?xml version="1.0" standalone="no"?>
<!DOCTYPE svg PUBLIC "-//W3C//DTD SVG 1.1//EN" "http://www.w3.org/Graphics/SVG/1.1/DTD/svg11.dtd" >
<svg xmlns="http://www.w3.org/2000/svg" xmlns:xlink="http://www.w3.org/1999/xlink" version="1.1">
<metadata>
Created by FontForge 20201107 at Sun Apr 21 20:53:52 2019
 By 
</metadata>
<defs>
<font id="Petscopfont-Regular" horiz-adv-x="250" >
  <font-face 
    font-family="Petscopfont"
    font-weight="400"
    font-stretch="normal"
    units-per-em="1000"
    panose-1="2 0 5 3 0 0 0 0 0 0"
    ascent="800"
    descent="-200"
    x-height="520"
    cap-height="666"
    bbox="33 -201 919 771"
    underline-thickness="50"
    underline-position="-150"
    unicode-range="U+000D-00A0"
  />
<missing-glyph horiz-adv-x="364" 
d="M33 0v666h265v-666h-265zM66 33h199v600h-199v-600z" />
    <glyph glyph-name=".notdef" horiz-adv-x="364" 
d="M33 0v666h265v-666h-265zM66 33h199v600h-199v-600z" />
    <glyph glyph-name=".null" 
 />
    <glyph glyph-name=".null" 
 />
    <glyph glyph-name="nonmarkingreturn" horiz-adv-x="333" 
 />
    <glyph glyph-name="CR" unicode="&#xd;" 
 />
    <glyph glyph-name="space" unicode=" " 
 />
    <glyph glyph-name="exclam" unicode="!" horiz-adv-x="334" 
d="M71 170q32 43 38 43q7 0 65.5 -9t59.5 -10t5 -63l4 -61q-12 -12 -35.5 -34t-34.5 -34l-40 10l-60 15l-22 6l-6 47l-7 46zM114 755q0 4 21 4q18 0 57 -3l45 -4q9 -12 29 -34.5t29 -33.5l-33 -190q-30 -182 -35 -207q-2 -12 -9 -14t-45 -2h-51q-15 20 -43 62l18 209
q4 48 8.5 103t6.5 82t2 28z" />
    <glyph glyph-name="quotedbl" unicode="&#x22;" horiz-adv-x="488" 
d="M253 568q1 4 72.5 103.5t74.5 99.5t27 -20l23 -20l-34 -50q-33 -49 -33 -55t27 -53l27 -47q-22 -23 -68 -69h-74l-23 51q-20 43 -20 56v2zM41 587l9 15q9 14 22 34t28.5 44t28.5 44t23 33.5t11 13.5q6 0 37.5 -13.5t31.5 -15.5l-30 -55q-30 -55 -30 -63q0 -3 27 -40
l23 -33q-10 -15 -30.5 -46.5t-31.5 -47.5h-78l-25 58q-20 50 -20 59q0 8 4 13z" />
    <glyph glyph-name="quotesingle" unicode="'" horiz-adv-x="256" 
d="M35 699q0 8 22 8q4 0 50 -2q71 -4 91 -7.5t20 -11.5q0 -10 -21.5 -115t-21.5 -106q0 -2 -53 -2q-38 0 -45.5 1.5t-9.5 11.5q-3 17 -17.5 116.5t-14.5 106.5z" />
    <glyph glyph-name="comma" unicode="," horiz-adv-x="267" 
d="M42 103q34 70 51 104h90q32 -100 47 -151l-55 -111q-54 -108 -64 -108h-1q-8 3 -40 27.5t-32 27.5q0 5 35 63q30 49 30 60q0 2 -0.5 4l-1 4t-1.5 4l-2 4t-3.5 5t-4 5l-4.5 6t-5 6.5t-6 8t-7 8.5z" />
    <glyph glyph-name="period" unicode="." horiz-adv-x="262" 
d="M106 203q7 1 24 2t23 1l24 1q8 -18 25 -55t25 -55q-30 -38 -61 -82h-84q-21 48 -45 93l23 47q16 34 22.5 40t23.5 8z" />
    <glyph glyph-name="colon" unicode=":" horiz-adv-x="285" 
d="M69 209q2 4 6 4q7 0 63 -9.5t58 -11.5t13 -47l12 -44l-19 -30q-17 -27 -19 -38q-2 -8 -30 -8q-17 0 -52 5q-17 2 -23.5 8.5t-19.5 34.5l-19 39l13 35q15 36 17 62zM73 465q14 29 20.5 36.5t23.5 7.5q14 0 41 -3l39 -4q8 -20 24 -60.5t24 -60.5l-25 -37q-10 -15 -13 -19
t-9 -10.5t-11.5 -7.5t-14.5 -1q-12 0 -38 3l-35 4q-8 18 -24 53.5t-24 53.5z" />
    <glyph glyph-name="semicolon" unicode=";" horiz-adv-x="299" 
d="M54 146q1 1 22 19.5t41.5 36t23.5 17.5q89 -98 89 -117q0 -11 -61.5 -133t-68.5 -122q-6 0 -32 28l-28 29l36 55q36 59 36 63q0 7 -34 61q-27 45 -27 56q0 4 3 7zM99 479l21 24h90q8 -15 24 -46.5t24 -47.5l-34 -49q-26 -39 -35 -44q-9 -4 -20 -4q-12 0 -38 3l-31 4
l-18 55q-14 42 -14 53q0 14 31 52z" />
    <glyph glyph-name="question" unicode="?" horiz-adv-x="543" 
d="M129 58q30 53 53 98l50 -4q51 -4 52 -5t14 -58l12 -56q-7 -10 -21.5 -29.5t-21.5 -29.5h-108zM148 691q54 27 62 27h3q9 0 111 -6l103 -6q41 -35 79 -70v-176l-93 -105q-94 -105 -99 -124l-7 -19l-39 3q-50 5 -68 7q-24 3 -28 9q-2 4 -2 15q0 14 3 50l4 44q90 82 136 123
l4 50q2 40 2 47v5q-1 1 -44 5l-41 4l-24 -47q-23 -46 -23 -54t-31 -13q-24 -3 -37 -3q-16 0 -24.5 7t-26.5 31l-28 38q9 22 27 65.5t27 65.5z" />
    <glyph glyph-name="A" unicode="A" horiz-adv-x="710" 
d="M397 390q-11 87 -13 89t-16 -46.5t-27 -97.5t-13 -50t45 -5l43 -5l-3 14q-3 12 -16 101zM299 670q0 8 26 8q20 0 74 -3q101 -4 102 -5t85.5 -339.5t84.5 -343.5q0 -7 -134 -16l-51 -4l-12 55l-19 76l-6 22l-85 -1l-84 -2l-20 -69q-17 -63 -21 -72q-3 -1 -6 -1
q-64 0 -153 17q-40 8 -40 17q0 12 129.5 334t129.5 327z" />
    <glyph glyph-name="B" unicode="B" horiz-adv-x="591" 
d="M362 248l-18 23h-97l-4 -45q0 -6 -2.5 -36.5t-3.5 -41.5l-4 -34h105l21 26q14 17 17.5 26.5t3.5 28.5q0 30 -18 53zM364 517q-9 9 -12.5 12t-10 5.5t-15.5 2.5q-13 0 -43 -3q-18 -1 -21.5 -4.5t-3.5 -16.5t-4 -57l-4 -40h39q38 0 71 16l32 16l-4 24q-3 22 -24 45z
M554 272q0 -2 -8.5 -103t-8.5 -102q0 -4 -72 -51l-71 -47l-176 -6q-118 -5 -162 -5q-17 0 -17 1q-2 1 9 171.5t23 350t12 193.5q0 3 27 3q52 0 259 -8l92 -4l93 -102l-4 -73l-3 -73l-40 -34q-40 -35 -40 -36q3 -6 44 -35q43 -30 43 -40z" />
    <glyph glyph-name="C" unicode="C" horiz-adv-x="635" 
d="M248 677h1q9 0 133.5 -8.5t125.5 -8.5q6 0 47 -70q28 -48 35 -65.5t7 -37.5v-30l-85 -42q-78 -39 -85 -39h-1q-3 3 -12 63q-9 61 -10 62t-54 5l-53 3l-18 -24q-1 -2 -30 -43q-8 -12 -11.5 -33t-7.5 -90l-5 -107q8 -13 24.5 -41t24.5 -41q26 2 78.5 4t78.5 4l48 30
q48 30 51 34q5 5 13 5q9 0 5 -16q-5 -23 -10 -83q-5 -65 -7 -67q-3 -3 -73 -38l-72 -35l-111 12q-112 13 -115 17q-3 3 -63 83l-59 79q4 58 12 173.5t12 173.5l88 86q89 85 98 85z" />
    <glyph glyph-name="D" unicode="D" horiz-adv-x="647" 
d="M395 488l-41 33h-95l-3 -30q-2 -16 -15 -166t-15 -166l-3 -29l57 4q47 3 57.5 9t55.5 59l27 32l10 110q7 91 7 108q0 4 -42 36zM82 636l3 42h333l93 -76q22 -18 46.5 -38t37.5 -30.5t14 -11.5t1 -15q0 -52 -8 -177q-9 -140 -12.5 -166.5t-15.5 -43.5q-13 -19 -21 -23
q-2 0 -38 -26.5t-72 -53.5t-37 -27q-6 -4 -167.5 -14.5t-195.5 -10.5h-4q-1 1 18 297.5t25 373.5z" />
    <glyph glyph-name="E" unicode="E" horiz-adv-x="511" 
d="M87 642l4 42h382v-147q-36 1 -107 3.5t-107 4.5l-3 -40q-4 -45 -7 -64l-3 -25h158v-19q0 -15 -4 -73l-4 -52l-44 -4q-8 -1 -38 -3t-40 -3l-33 -4l-3 -38q-4 -45 -7 -64l-2 -25h234l-4 -39q-5 -50 -7 -72l-3 -32l-62 -4q-17 -1 -91.5 -4.5t-111.5 -5.5q-95 -5 -130 -5
q-14 0 -14 4q0 29 18 282.5t29 386.5z" />
    <glyph glyph-name="F" unicode="F" horiz-adv-x="507" 
d="M80 680q0 2 67 2q322 0 322 -12q0 -22 -3 -71l-4 -74l-106 5l-107 4l-4 -35q-1 -6 -2 -19t-2 -22.5t-2 -15.5l-3 -25q27 -2 79 -4t79 -4v-22q0 -16 -4 -74l-4 -54h-154l-4 -47q-4 -54 -4 -89q0 -7 -1 -42.5t-2 -52.5l-3 -54h-89q-90 0 -90 8q0 1 1.5 24t4.5 67t6 84
q8 128 8 168v10q0 26 9 170q3 41 6 84.5t4.5 66.5t1.5 24z" />
    <glyph glyph-name="G" unicode="G" horiz-adv-x="623" 
d="M160 672q2 0 164 -8.5t165 -8.5q6 0 36 -44t59 -95v-2q1 -2 1 -4q0 -13 -4 -36t-7 -23l-34 -12q-35 -12 -72 -24t-43 -12h-1q-6 6 -11 39q-5 32 -7 36q-2 2 -52 8l-48 6l-50 -50q-4 -34 -14 -102.5t-14 -102.5q15 -38 43 -114h92l19 67q25 85 26 88l6 22h157l-3 -91
q-5 -125 -7 -169l-4 -77h-86q-65 0 -76 1.5t-11 11.5q0 15 -3 26q-1 7 -5 7q-6 0 -37 -23q-24 -18 -35 -23t-34 -5q-21 0 -67 3l-57 4l-48 61q-50 63 -56 72q-4 5 -4 42q0 41 6 179q9 217 12 234q4 24 48 71q43 48 56 48z" />
    <glyph glyph-name="H" unicode="H" horiz-adv-x="657" 
d="M242 206q0 -3 -8.5 -135t-8.5 -134q0 -8 -23 -8q-34 0 -68 2q-94 4 -94 8q0 19 22.5 347t22.5 342q0 3 91 3h91l-4 -76q-5 -97 -7 -135l-3 -57l83 4q84 4 85 5t10 129t12 129h3q35 0 104 -5.5t69 -12.5q0 -32 -19.5 -355t-19.5 -338q0 -3 -88 -3h-89l5 149l4 148h-85
q-85 0 -85 -7z" />
    <glyph glyph-name="I" unicode="I" horiz-adv-x="309" 
d="M40 -26q0 13 26 345.5t26 345.5q0 1 14 1q36 0 100.5 -3t64.5 -6q0 -23 -23 -357t-25 -336q-1 -1 -16 -1q-36 0 -101.5 4t-65.5 7z" />
    <glyph glyph-name="J" unicode="J" horiz-adv-x="515" 
d="M262 169q0 11 23.5 249t23.5 240t84 2t84 -5q0 -8 -29 -307l-28 -301q-14 -13 -42.5 -38.5t-42.5 -38.5l-50 -4q-14 -1 -52 -3t-52 -3l-56 -4q-56 42 -85 62l3 38q5 56 7 71l4 33l44 14q44 16 51 16q5 0 31 -35l25 -36l29 25q28 23 28 25z" />
    <glyph glyph-name="K" unicode="K" horiz-adv-x="645" 
d="M262 387q2 0 115 139.5t116 139.5q4 0 58.5 -62t54.5 -66q0 -6 -99 -110q-99 -107 -101 -110q-2 -6 92 -149q97 -147 97 -152q0 -8 -70 -44l-74 -36q-52 55 -107 110l-32 92q-31 91 -35 91q-5 -3 -15 -11q-9 -8 -13 -29.5t-12 -111.5q-10 -124 -14 -131h-4q-31 0 -105 5
t-74 10q0 36 26.5 360.5t30.5 328.5q2 2 32 2q34 0 56 -1l83 -4l-5 -131q-2 -84 -2 -103z" />
    <glyph glyph-name="L" unicode="L" horiz-adv-x="452" 
d="M79 663q0 1 32 1q147 0 147 -8q0 -23 -13.5 -242t-17.5 -266l-4 -40h195l-5 -74q-4 -74 -6 -76h-6q-35 0 -197.5 6t-164.5 7q-1 1 9 170t20.5 342t10.5 180z" />
    <glyph glyph-name="M" unicode="M" horiz-adv-x="885" 
d="M40 -30q0 9 29 352t29 352q0 4 8 4q15 0 141.5 -9.5t127.5 -10.5q2 -2 11 -65q2 -14 13.5 -97t18.5 -134q24 -170 25 -171q3 -3 99 349q31 115 35 119q1 1 26 1q19 0 111 -2q134 -4 134 -17l-23 -660v-14l-91 4q-89 3 -97 9v7q0 63 13 205q17 204 17 215q0 17 -74 -193
q-24 -66 -44 -126q-36 -102 -40 -106q-4 -6 -83 -11l-77 -4l-15 66q-67 306 -81 354l-9 32l-1 -84l-5 -225l-3 -141l-97 -4q-24 -1 -56 -1q-42 0 -42 6z" />
    <glyph glyph-name="N" unicode="N" horiz-adv-x="663" 
d="M68 662q0 10 31 10q1 0 99 -4q74 -4 74 -12q0 -6 81 -202t85 -201v2q1 2 1 7.5v10.5v16q0 29 -2 173l-4 212l95 -5q95 -4 97 -6q1 -1 -10 -168t-23 -341.5t-12 -187.5q0 -3 -93 -3h-92l-89 190q-92 197 -97 205q-1 3 -3 3q-3 0 -3 -57q0 -72 1 -133l2 -202h-83
q-63 0 -73.5 1.5t-10.5 11.5q0 4 6 112q6 110 6 168q0 72 9 230q2 36 4 79.5t3 65.5t1 25z" />
    <glyph glyph-name="O" unicode="O" horiz-adv-x="675" 
d="M469 392q-9 19 -25 57t-25 57l-29 1q-24 0 -66 -2l-38 -2q-36 -60 -54 -91q-3 -32 -9 -94.5t-9 -93.5l24 -41q25 -44 26 -45h6q7 0 51 2l55 4l27 31q19 22 24.5 38t21.5 86zM200 653q8 1 133 12t142 12q14 0 29.5 -10.5t60.5 -49.5q72 -64 72 -67q0 -5 -2 -33t-6.5 -83
t-7.5 -97l-17 -209l-37 -33q-38 -36 -72 -65l-35 -32h-320q-34 45 -102 133q1 58 3.5 173.5t4.5 173.5l72 87q72 86 82 88z" />
    <glyph glyph-name="P" unicode="P" horiz-adv-x="606" 
d="M374 525l-13 19h-54q-54 0 -54 -4q-15 -174 -15 -201q1 -3 2 -3h3q6 0 40 2l43 4l31 41q22 31 26 41.5t4 40.5q0 39 -13 60zM84 699q0 2 16 2q13 0 253 -9l86 -4l129 -147l-4 -55q-1 -10 -3 -47t-3 -50l-4 -41l-52 -64q-12 -15 -26.5 -31.5t-23 -26.5t-9.5 -11
q-11 -9 -105 -19q-97 -11 -100 -14q-4 -4 -13 -80.5t-9 -97.5v-4q1 -5 -0.5 -6.5t-7.5 -1.5q-24 0 -96.5 6t-72.5 11q0 25 22.5 351t22.5 339z" />
    <glyph glyph-name="Q" unicode="Q" horiz-adv-x="656" 
d="M394 513q-35 31 -37 31q-6 -1 -42 -9.5t-37 -9.5t-19 -35l-20 -34l5 -136l4 -136l20 -15q16 -13 32 -13q4 0 24 2q35 5 43 14q6 8 27 38l20 29l7 122l6 122zM168 649q2 0 152 17t153 17h1q14 0 67 -50l54 -51l12 -162q3 -39 6 -81t4.5 -64t1.5 -24q0 -8 -61 -105l-62 -99
q-36 -18 -80 -41l64 -54q63 -54 63 -60q0 -3 -54 -48q-32 -26 -45.5 -34.5t-28.5 -8.5q-14 0 -47 11l-37 11q-52 102 -77 154l-103 72q-102 71 -102 85q0 2 -1 26.5t-3 68.5t-3 84l-6 168l63 84q60 81 69 84z" />
    <glyph glyph-name="R" unicode="R" horiz-adv-x="605" 
d="M356 531q-26 12 -45 12q-13 0 -38 -3l-24 -2l-4 -45q-1 -8 -3 -37.5t-3 -39.5l-3 -33l33 -5l32 -4q27 20 81 62v83zM39 12q0 10 17 350l18 339q0 6 29 6q7 0 57 -2q15 -1 78 -3.5t89 -3.5l82 -4q100 -82 149 -124l-4 -55q0 -6 -3 -48t-4 -58l-3 -50l-52 -43
q-52 -43 -52 -46q0 -1 63 -100l63 -100q2 -6 -50 -40l-53 -33q-19 8 -57.5 24t-57.5 24l-25 68q-39 108 -47 117q-4 4 -19 7q-22 5 -24 3t-11 -121t-11 -120h-9q-11 0 -79 2q-84 4 -84 11z" />
    <glyph glyph-name="S" unicode="S" horiz-adv-x="589" 
d="M249 703q14 0 53 1t54 2l52 1l63 -47q63 -47 63 -51q16 -135 16 -148q0 -4 -82 -10q-60 -4 -63 -4q-19 0 -22 5q-5 7 -12 41t-11 36h-2q-12 0 -61 -6.5t-51 -8.5q-1 -1 -5 -28l-4 -26l75 -40q69 -37 130 -87l56 -46q2 -25 4 -75t4 -75l-32 -36q-67 -75 -80 -84.5
t-63 -19.5l-60 -12l-115 50q-116 52 -116 55q0 7 24.5 76.5t26.5 69.5q5 0 74 -49q68 -47 83 -47h5q49 7 54.5 11t8.5 33q2 24 2 31t-1 8q-3 4 -82 39q-59 25 -74.5 35t-42.5 41l-38 43l7 100q6 101 16 112q4 6 50 60l40 48z" />
    <glyph glyph-name="T" unicode="T" horiz-adv-x="609" 
d="M40 575l4 56h527v-19q0 -14 -4 -72l-4 -54h-171l-4 -36q-2 -20 -18 -241.5t-18 -241.5l-3 -39h-90q-89 0 -89 7q0 11 11.5 235.5t14.5 264.5l4 52l-82 -4l-82 -5v20q0 15 4 77z" />
    <glyph glyph-name="U" unicode="U" horiz-adv-x="630" 
d="M423 623q0 2 9 2q11 0 121 -9q39 -4 39 -9q0 -1 -2.5 -34.5t-7 -97.5t-8.5 -124q-12 -169 -16.5 -212.5t-10.5 -50.5q-6 -8 -74 -86l-62 -73q-39 -2 -117.5 -4.5t-117.5 -3.5l-29 32q-9 9 -34 37t-34 38l-40 44l15 258q15 264 15 275v16l86 -4q87 -3 87 -9q0 -2 -8 -216
q-6 -144 -6 -188q0 -43 6 -67q9 -37 10 -38t50 -5l48 -4l20 43q15 33 20 66t20 199q21 214 21 225z" />
    <glyph glyph-name="V" unicode="V" horiz-adv-x="694" 
d="M202 -82l-82 342q-81 342 -81 352q0 8 104 8h104l4 -19q0 -1 37 -242.5t38 -242.5l30 99q29 99 64.5 220t49.5 172q5 19 16 19q16 0 92.5 -7t76.5 -8q0 -12 -233 -676l-6 -19h-107q-107 0 -107 2z" />
    <glyph glyph-name="W" unicode="W" horiz-adv-x="958" 
d="M35 480v146h93q93 0 93 -3t20 -176q4 -36 10.5 -91t11 -90.5t5.5 -49.5q8 -63 11 -63q5 0 47 325q16 130 20 135q4 7 123 7q118 0 118 -1q1 -17 27 -251t27 -235t14 68.5t33 175.5q42 237 47 247h3q3 0 8 0.5t10 0.5q15 0 73 -2l90 -4l-3 -25q-3 -31 -166 -651l-6 -22
l-106 4q-106 4 -107 5t-34 231t-37 234h-1q-6 0 -11 -32q-5 -31 -37.5 -234t-32.5 -205t-102 -2h-101l-6 22q0 2 -7 29t-16 61.5t-22 87.5t-25 101z" />
    <glyph glyph-name="X" unicode="X" horiz-adv-x="711" 
d="M219 666q4 0 78.5 -128t75.5 -128q3 0 84 114q80 113 85 113t67 -67l63 -68l-118 -114q-117 -113 -117 -119q0 -4 96 -167q94 -159 94 -165q-4 -4 -92 -13q-57 -6 -74 -6t-20 5q-12 20 -63 114l-59 106l-60 -78q-61 -81 -61 -82q0 -5 -24 -36t-28 -31t-55 82l-51 82
l37 36q8 8 101 93q62 55 65 63q0 6 -95 169.5t-95 167.5q0 5 13 5q11 0 80 26q64 26 73 26z" />
    <glyph glyph-name="Y" unicode="Y" horiz-adv-x="687" 
d="M416 488q67 167 71 167q2 0 84 -30q48 -18 63.5 -26t13.5 -14q0 -1 -54 -100.5t-108 -198.5l-55 -100q-7 -17 -16 -122q-9 -110 -10 -111t-90 -5l-89 -4v278l-93 206q-93 206 -93 212q0 1 35 1q170 0 178 -6q3 -3 32 -100q38 -127 47 -157l17 -57z" />
    <glyph glyph-name="Z" unicode="Z" horiz-adv-x="617" 
d="M104 578l-1 78l237 -4q237 -4 239 -6t-5 -56l-6 -55q-119 -186 -277 -441l67 -4q49 -3 131 -5h63l-3 -39q-4 -48 -7 -69l-4 -30l-246 -5q-168 -2 -205 -2q-45 0 -46 1t-1 11q0 9 2 45l4 52q93 148 277 446q-36 1 -108.5 3t-108.5 3z" />
    <glyph glyph-name="a" unicode="a" horiz-adv-x="618" 
d="M338 142q2 6 2 8q0 3 -4 3q-6 0 -56 -15l-52 -16l2 -29q2 -28 4 -30h4q4 0 34 2l35 4l14 30q12 25 17 43zM170 427l64 42h174l126 -102q-2 -48 -4.5 -143.5t-3.5 -143.5l26 -13q5 -3 12 -6.5l11 -5.5l4 -2l-31 -66l-32 -65h-121q-7 12 -23 35t-23 35q-13 -13 -40 -40.5
t-40 -41.5h-133q-64 36 -97 53v135l26 30q10 11 48 55l22 24l102 20q102 20 114 24q10 1 10 8q0 5 -3 19q-9 43 -14 47q-4 4 -16 4q-2 0 -11 -0.5t-15 -0.5l-44 -2q-5 -12 -15 -36.5t-15 -36.5h-38q-24 0 -35 3t-27 15q-17 13 -21 21.5t-7 40.5q-1 11 -1 30q0 17 2 18
q2 2 69 46z" />
    <glyph glyph-name="b" unicode="b" horiz-adv-x="585" 
d="M314 348q-26 3 -37 3q-13 0 -20 -5t-20 -22q-16 -21 -20 -35t-8 -73l-6 -81l18 -26q16 -24 21 -29h4q5 0 35 2q26 3 35 7t21 19t16 31t10 73q6 55 6 71q0 15 -8 36q-8 20 -14 23.5t-33 5.5zM64 678q0 6 87 6t87 -6q0 -7 -9 -111.5t-11 -122.5q-1 -5 -1 -12q0 -6 3 -6
q4 0 49 39l33 28q26 -1 78 -3.5t78 -4.5l43 -59q46 -65 47 -66v-6q0 -38 -11 -142l-14 -142l-125 -125h-263l-46 65q-45 63 -50 73q-1 1 -1 15q0 40 6.5 182t13 268.5t6.5 129.5z" />
    <glyph glyph-name="c" unicode="c" horiz-adv-x="528" 
d="M490 288q-1 0 -82 -18l-80 -17q-5 0 -5 38q0 65 -21 65h-2q-8 -3 -33 -7q-17 -2 -23.5 -9t-21.5 -38t-18 -45.5t-3 -57.5v-59q24 -29 49 -61h42q28 0 44.5 4.5t55.5 22.5q51 24 61 24h1q3 -3 -14 -64q-14 -47 -24 -61.5t-51 -45.5l-19 -15q-33 2 -98.5 4.5t-98.5 3.5
q-48 56 -111 124v298q70 60 123 109l59 4q12 1 117 4l59 1q29 -30 89 -90l4 -57q2 -38 2 -47q0 -10 -1 -10z" />
    <glyph glyph-name="d" unicode="d" horiz-adv-x="629" 
d="M393 276q-20 43 -37 76h-83q-10 -12 -30 -36.5t-30 -37.5v-71q0 -50 2.5 -64.5t13.5 -34.5l16 -29h44q32 1 41.5 4t26.5 18l25 22l5 76zM411 678q0 4 42 4q38 0 87.5 -3t49.5 -5q0 -18 -32 -374.5t-34 -358.5q-7 -1 -17 -1q-13 0 -61 2l-76 5v36l-1 35q-12 -13 -36 -40
t-36 -40l-82 7q-19 1 -41 2.5t-33.5 2.5t-12.5 1q-6 0 -48 55l-42 54l6 154q1 34 2.5 76.5t2.5 64t1 24.5q0 11 54 62l54 50q28 2 84 6.5t84 7.5q38 -40 66 -73l4 31q2 22 8.5 113t6.5 102z" />
    <glyph glyph-name="e" unicode="e" horiz-adv-x="545" 
d="M313 337q-4 15 -8 18t-21 3q-23 0 -28 -13q-1 -1 -10 -23t-17 -42t-8 -24q0 -2 3 -2q9 0 46 14.5t41 15.5q10 1 10 12q0 9 -8 41zM305 492q76 10 82 11q13 0 62 -35l50 -35q1 -20 4 -60.5t4 -60.5l-39 -53q-41 -52 -42 -52q-10 0 -65 -10t-62 -13q-14 -7 -53 -12l-42 -7
q7 -15 19 -44.5t19 -44.5l45 -2l43 -1l31 32q31 31 35 31t42.5 -47.5t38.5 -51.5t-51 -48l-50 -45q-37 2 -111 4t-111 4l-38 31q-36 30 -57 48l-19 16q5 53 15 157.5t15 156.5l53 53q44 45 67 54.5t115 23.5z" />
    <glyph glyph-name="f" unicode="f" horiz-adv-x="578" 
d="M366 697q25 3 41 3q26 0 75 -28l51 -29l4 -35q3 -28 3 -43q0 -18 -6 -27t-25 -25q-21 -18 -32.5 -23t-39.5 -7l-42 -4l-10 37q-7 23 -12 30.5t-15 11.5q-8 2 -11 2q-9 0 -28 -19q-14 -15 -19 -25.5t-9 -35.5q-5 -38 -4 -39q123 -15 124 -16q1 0 1 -7q0 -6 -1.5 -25.5
t-1.5 -30.5l-4 -61q-21 -1 -63 -3.5t-63 -4.5l-3 -21q-1 -3 -10.5 -82.5t-19.5 -157t-12 -81.5q-4 -6 -84 -6q-81 0 -81 8q0 1 21 302l3 39q-9 1 -27 3.5t-27 4.5l3 35q6 62 7 66l4 31h28h13q12 0 16 13t15 83q9 58 13 62q1 1 9 7.5t22.5 19t27.5 23.5l55 47l47 3
q10 1 25.5 2t26 2t15.5 1z" />
    <glyph glyph-name="g" unicode="g" horiz-adv-x="623" 
d="M381 499l-19 39h-33q-25 0 -32 -4t-27 -26l-26 -31l-4 -72l-5 -73l18 -17q14 -14 28 -14q2 0 26 2q37 4 61 24l24 20l4 57q2 36 2 39q0 22 -17 56zM410 660l1 20l86 -5q87 -4 87 -7q0 -11 -31 -305q-31 -305 -39 -311q-4 -6 -68 -60l-61 -52h-33q-23 0 -129 4l-97 3
l-42 55q-44 55 -44 59t58 40t64 36q4 0 31 -34q20 -25 28.5 -30t36.5 -8l37 -5l34 30q27 23 33 36.5t11 65.5l4 35q-34 -44 -50 -67l-43 1q-61 3 -98 5l-54 3l-38 53q-38 51 -38 63q0 2 1 21t3 52.5t3 63.5l5 125l113 113h193l14 -20q13 -19 16 -14l2 4q4 10 4 30z" />
    <glyph glyph-name="h" unicode="h" horiz-adv-x="604" 
d="M84 708q0 4 34 4q24 0 59.5 -2t60 -3.5t25.5 -2.5q2 -2 -3.5 -93.5t-9.5 -127.5l-4 -29q11 12 31.5 34.5t30.5 33.5l96 -6q23 -1 48 -3t39.5 -3t15.5 -1q6 0 33 -43l27 -43l-12 -222q-11 -223 -15 -225q-7 -1 -19 -1q-14 0 -70 2q-88 4 -88 11q0 14 14 171l14 165l-30 63
h-60q-9 -12 -27 -36.5t-27 -37.5l-21 -167q-20 -166 -22 -170h-4q-26 0 -93.5 5t-67.5 9q0 22 22.5 362t22.5 356z" />
    <glyph glyph-name="i" unicode="i" horiz-adv-x="314" 
d="M245 495q0 -1 -8.5 -126.5t-17.5 -254.5t-9 -137q0 -5 -47 -9t-88 -4q-31 0 -34 3q-1 3 -1 8q0 42 13.5 220t25.5 288l4 33l45 -3q117 -10 117 -18zM93 690q15 18 23 23.5t24 5.5q4 0 48 -4l39 -4l48 -87l-68 -68l-48 1l-48 2q-7 17 -21 50.5t-21 50.5z" />
    <glyph glyph-name="j" unicode="j" horiz-adv-x="493" 
d="M268 560v1l-1 1q0 5 22 5q4 0 60 -2q85 -4 85 -8q0 -25 -16 -290l-18 -290q-31 -46 -93 -140l-70 -4q-78 -4 -83 -4q-8 0 -14 1t-10.5 1.5t-9.5 4t-7.5 4.5t-7.5 8t-7 9.5t-9 13t-10 15.5q-39 55 -39 60q0 4 59 29l59 25l18 -22q19 -20 26 -20q6 0 11 4q6 4 30.5 271
t24.5 320v7zM254 697q22 46 33 68h136q18 -50 31 -81l-21 -29q-15 -21 -22.5 -25t-37.5 -6q-32 -4 -52 -4q-18 0 -25.5 6.5t-20.5 31.5z" />
    <glyph glyph-name="k" unicode="k" horiz-adv-x="560" 
d="M39 -33q0 12 10.5 194t20.5 360t10 179q4 1 10 1q28 0 88.5 -3.5t62.5 -5.5v-9q0 -23 -4 -151t-4 -151v-9q2 -2 91 76q90 79 93 79q6 0 45 -61.5t39 -70.5q0 -3 -100 -68l-96 -62l100 -105q99 -104 109 -104q8 0 6 -6q-1 -4 -61.5 -54.5t-64.5 -50.5t-91 107l-87 107
l-7 -59q-2 -17 -5.5 -52t-4.5 -46l-4 -39h-78q-78 0 -78 4z" />
    <glyph glyph-name="l" unicode="l" horiz-adv-x="317" 
d="M80 708q0 5 85 5q84 0 84 -7q0 -3 -13.5 -266t-13.5 -300v-6l14 -8q15 -9 28.5 -17.5t13.5 -10.5q0 -7 -17 -60l-18 -56l-53 -4q-60 -4 -65 -4q-16 0 -26 4.5t-14.5 10t-18.5 25.5l-27 39l21 325q20 325 20 330z" />
    <glyph glyph-name="m" unicode="m" horiz-adv-x="866" 
d="M48 456q0 7 1 19q1 33 5 42t19 9q1 0 65 -8q61 -9 68 -9t7 -12q0 -23 8 -23q9 0 22 18l20 24l61 -3q77 -5 114 -7l54 -4q14 -42 21 -62q27 31 50 62l79 3q94 4 97 4h15.5t12 -2.5t8 -3t7.5 -5.5t6 -6.5t7 -10t8 -11.5l27 -40l-12 -224q-3 -54 -6 -111t-4 -87l-2 -30
q0 -4 -84 -4q-58 0 -71 1.5t-13 9.5q0 31 8 178l10 168l-22 22q-23 23 -28 23q-3 0 -33.5 -18t-32.5 -20t-22.5 -181t-21.5 -180t-81 -5l-80 -5v17q0 1 6 181l6 165l-19 26q-18 25 -24 25t-35 -18q-30 -19 -31 -19q-1 -1 -24.5 -178.5t-23.5 -183.5q0 -2 -77 -2h-76l3 203
q3 177 8 273z" />
    <glyph glyph-name="n" unicode="n" horiz-adv-x="613" 
d="M40 -24q0 9 9 140.5t17.5 260t8.5 129.5q0 3 11 3q13 0 119 -9l38 -3v-28l1 -27l16 20q4 5 10 13t8.5 10.5l7 7t8 5.5t9 2t13.5 1q21 0 87 -6q108 -9 114 -9q5 0 32 -53l27 -53l-12 -172q-14 -190 -16 -210l-4 -36l-88 4q-89 4 -89 7q0 10 13 173l15 173q-7 8 -21 24.5
t-21 25.5l-41 -18q-41 -16 -47 -22q-3 -2 -15.5 -84.5t-25 -168.5t-12.5 -88l-4 -19h-84q-84 0 -84 7z" />
    <glyph glyph-name="o" unicode="o" horiz-adv-x="582" 
d="M372 350q-16 25 -25 25q-91 -7 -96 -12l-3 -5q-3 -5 -8.5 -14t-10.5 -17l-21 -33v-67q0 -66 13 -93l12 -26h41q30 0 39.5 3.5t29.5 21.5l28 25l8 83l9 84zM273 501q118 19 121 19q7 0 80 -47l72 -47l-3 -85q-7 -157 -7 -164l-4 -80q-49 -44 -147 -134h-216l-51 59
q-58 67 -65 75l-15 17q2 36 4 107t4 107l52 75q50 74 57 76t118 22z" />
    <glyph glyph-name="p" unicode="p" horiz-adv-x="607" 
d="M373 368q-24 30 -35 30h-1q-32 -2 -42.5 -8.5t-28.5 -33.5t-22.5 -41t-8.5 -66l-6 -72l21 -25q15 -18 23 -22.5t32 -6.5q24 -3 35 -3h2q2 1 29 40l27 38v140zM84 530q0 2 17 2q32 0 89 -4l62 -3v-58q16 19 48 59q24 2 72 4.5t72 3.5q64 -61 128 -119v-269l-61 -76
q-55 -68 -66 -79q-4 -4 -75 -11l-71 -7l-75 66l-3 -19q-3 -13 -10 -100.5t-9 -98.5l-3 -22l-78 2q-81 2 -81 11q0 34 22 369t22 349z" />
    <glyph glyph-name="q" unicode="q" horiz-adv-x="616" 
d="M387 395q-6 9 -18 25t-18 25h-83l-19 -39q-12 -27 -16 -45.5t-6 -67.5l-4 -74l17 -23q12 -17 19.5 -20.5t34.5 -3.5h38l19 34q12 23 17 42.5t11 68.5zM406 534q0 2 1.5 17.5t4 27.5t6.5 12q12 0 86 -9.5t74 -11.5q0 -22 -26 -374t-28 -354h-3q-29 0 -101 6t-72 11
q0 76 14 199q1 7 1 16q0 8 -3 8q-5 0 -45 -34l-26 -22q-31 1 -93 3.5t-93 4.5q-21 34 -65 102l12 165q9 134 14 153q7 24 37 57q22 23 25 27l37 41h199l20 -29q15 -23 20 -23q3 0 4 7z" />
    <glyph glyph-name="r" unicode="r" horiz-adv-x="526" 
d="M39 11q0 15 20.5 272t20.5 258q0 2 22 2q11 0 27.5 -0.5t32 -1.5t29.5 -1.5t23 -1.5h9q13 0 16 -2.5t3 -13.5q0 -20 7 -20q8 0 17 20l13 24l79 -4q66 -4 79.5 -10t35.5 -44l15 -25l-9 -53q-9 -52 -12 -55q-2 -2 -68 -31.5t-70 -29.5q-5 0 -5 53q0 37 -2 45t-12 13
q-6 3 -11 3q-9 0 -26 -13l-23 -17q-1 -1 -19 -183t-18 -189q0 -3 -87 -3t-87 8z" />
    <glyph glyph-name="s" unicode="s" horiz-adv-x="515" 
d="M164 539q20 2 117 6t106 4l35 1q9 -11 27.5 -33.5t27.5 -33.5l-4 -61q-4 -61 -5 -62t-68 -5l-68 -4l-4 29q-2 20 -7 26t-26 16t-29 10t-23 -7t-19 -12t-4 -18v-20q146 -70 220 -105l3 -36q2 -21 7 -76l4 -41l-39 -47q-38 -45 -43 -50t-90 -14l-87 -9l-78 33
q-77 35 -77 38q0 6 25 55t28 49q4 0 59 -25l55 -26l42 12q41 11 41 24q0 9 -10 20q-11 11 -100 53q-87 39 -91 43q-3 3 -8 90l-7 89l33 43q23 31 31.5 37t25.5 7z" />
    <glyph glyph-name="t" unicode="t" horiz-adv-x="450" 
d="M142 569l25 74h119l5 -79l4 -79l58 5l58 4l-4 -41q-5 -55 -7 -73l-3 -33h-61q-60 0 -60 -2q-22 -234 -22 -246l18 -12l16 -13l33 11q36 12 38 12q4 0 4 -46v-46q-40 -37 -80 -71h-145q-39 57 -66 104l14 153q13 145 13 153q0 4 -30 9t-30 9q0 5 4 37q9 54 13.5 62.5
t25.5 13.5q24 5 30 13q6 6 30 81z" />
    <glyph glyph-name="u" unicode="u" horiz-adv-x="565" 
d="M58 549q0 7 21 7q17 0 62 -3q83 -4 85 -6v-6q0 -77 -14 -306l-4 -55q9 -8 27 -22t27 -22l18 15q5 4 13 10q29 22 36 42.5t23 129.5q4 25 6 39q28 182 29 183h7q9 0 65 -2q50 -3 60 -5.5t10 -11.5q0 -36 -9.5 -280.5t-10.5 -245.5q0 -1 -10 -1q-7 0 -33 1.5t-41 1.5
q-58 3 -70 5.5t-12 11.5q0 14 -3 26q-2 8 -5 8q-5 0 -30 -22l-30 -26h-162l-32 39q-7 9 -16 20.5t-15 18.5t-8 10q-4 8 -4 33q0 35 9 191q11 215 11 222z" />
    <glyph glyph-name="v" unicode="v" horiz-adv-x="636" 
d="M97 546q99 3 133 3q25 0 25 -2q41 -369 43 -369q5 0 53 177q53 186 56 190q1 1 6 1q22 0 90 -16q92 -22 94 -24q3 -1 -106 -255l-110 -253h-94q-64 0 -80 1.5t-18 8.5q-6 21 -75 265.5t-71 254.5l-4 16z" />
    <glyph glyph-name="w" unicode="w" horiz-adv-x="894" 
d="M675 537q4 13 7 13q4 0 88.5 -26.5t84.5 -28.5q0 -12 -89 -247l-91 -245h-92q-93 0 -93 2q0 3 -21 162.5t-24 176.5q-1 6 -2 6q-5 0 -38 -163q-36 -178 -39 -181q-1 -1 -97 -5l-97 -5l-68 272q-65 260 -65 274h7q29 0 112.5 -5t85.5 -7l32 -355l65 368h4q25 0 121.5 -5.5
t97.5 -7.5q2 -2 22 -183.5t22 -183.5q1 -1 17.5 92.5t32.5 187.5z" />
    <glyph glyph-name="x" unicode="x" horiz-adv-x="627" 
d="M225 279q0 3 -72.5 129.5t-72.5 130.5q0 5 95 5h95l43 -70q42 -69 46 -69q5 0 64 81t64 81q3 0 52 -65l49 -64l-83 -79q-82 -80 -82 -84l154 -239q1 -3 -2 -5t-14 -4t-31 -4t-55 -5l-44 -4l-72 81q-73 82 -77 80q-3 -2 -103 -152q-20 -31 -24 -31q-2 0 -58.5 64t-56.5 69
q0 6 52 45q27 20 58 46.5t54 42.5q21 14 21 20z" />
    <glyph glyph-name="y" unicode="y" horiz-adv-x="611" 
d="M254 549q0 -2 -8.5 -157.5t-8.5 -159.5q0 -8 26 -29l26 -21l22 16q4 3 11 8q28 19 36 35q10 19 28 127l5 31q27 159 29 161q7 1 17 1q13 0 61 -2q76 -4 76 -11q0 -1 -2 -37t-6 -109t-7 -136q-12 -213 -15 -246.5t-13 -45.5q-2 -3 -13 -15.5t-25.5 -28.5t-26.5 -30
l-50 -58l-53 -4l-112 -7l-58 -3l-76 53q-77 53 -77 58t57 41l58 36q68 -42 101 -64l41 15q44 17 47 20t14 52t12 62q0 1 -1 1q-7 0 -35 -23l-36 -29h-153q-56 92 -83 138l14 180q3 41 7 89t6 71t2 24q0 4 43 6q67 3 90 3q20 0 25 -2.5t5 -9.5z" />
    <glyph glyph-name="z" unicode="z" horiz-adv-x="577" 
d="M109 483v67h430v-19q0 -25 -3 -58l-5 -39q-130 -160 -232 -282l57 -4q4 0 109 -4l51 -1v-132l-176 -3q-35 -1 -92.5 -2t-94 -2t-51.5 -1h-63v114q141 158 251 285l-83 4q-87 6 -91 7q-7 2 -7 70z" />
    <glyph glyph-name="nbsp" unicode="&#xa0;" 
 />
  </font>
</defs>
</svg>
