<?xml version="1.0" encoding="UTF-8" standalone="no"?>
<svg
   version="1.0"
   width="256pt"
   height="256pt"
   viewBox="0 0 256 256"
   preserveAspectRatio="xMidYMid"
   id="svg10"
   xmlns="http://www.w3.org/2000/svg"
   xmlns:svg="http://www.w3.org/2000/svg">
  <defs
     id="defs10" />
  <g
     id="g11">
    <g
       id="layer1"
       style="display:inline">
      <path
         id="path12"
         style="display:inline;opacity:1;fill:#ffffff;fill-opacity:1;stroke-width:0.75;image-rendering:auto"
         d="m 84.224371,72.651592 -5.490729,11.346791 -15.559006,16.073227 -11.198957,5.89492 4.185542,11.88743 0.364675,22.33437 -3.795301,12.06794 11.410132,5.46538 16.074782,15.51121 5.83156,11.17271 11.95155,-4.15961 22.368011,-0.39729 12.04183,3.73227 5.49193,-11.34818 15.559,-16.07322 11.19776,-5.89354 -4.18434,-11.88882 -0.36468,-22.33437 3.79486,-12.06685 -11.40969,-5.46646 -16.07402,-15.511527 -5.83321,-11.17025 -11.95066,4.157464 -22.368009,0.397292 z m 6.746022,15.530326 c 0,0 5.675373,2.260252 8.671069,2.686451 5.315668,0.756262 10.818878,0.655681 16.104858,-0.285969 2.98967,-0.532581 8.60456,-2.99387 8.60456,-2.99387 0,0 2.38823,5.620995 4.19971,8.042802 3.2112,4.29316 7.17016,8.109058 11.57308,11.168038 2.4936,1.73244 8.21482,3.93676 8.21482,3.93676 0,0 -2.29526,5.68287 -2.73143,8.68704 -0.77027,5.30534 -0.68408,10.80417 0.26187,16.08103 0.53376,2.97757 3.01362,8.5599 3.01362,8.5599 0,0 -5.6327,2.42172 -8.06319,4.24286 -4.29661,3.21939 -8.12738,7.1723 -11.20268,11.57319 -1.73308,2.48013 -3.95393,8.17123 -3.95393,8.17123 0,0 -5.67425,-2.26142 -8.66987,-2.68784 -5.3156,-0.75668 -10.81969,-0.65568 -16.10562,0.28628 -2.989946,0.53281 -8.604995,2.99494 -8.604995,2.99494 0,0 -2.387006,-5.62201 -4.198514,-8.04419 -3.210933,-4.29335 -7.170999,-8.10985 -11.574153,-11.16847 -2.493704,-1.73224 -8.214951,-3.93494 -8.214951,-3.93494 0,0 2.296386,-5.68378 2.732641,-8.68842 0.770305,-5.30534 0.683594,-10.80391 -0.262627,-16.08072 -0.533858,-2.97718 -3.013312,-8.55914 -3.013312,-8.55914 0,0 5.632629,-2.42321 8.063318,-4.24469 4.296449,-3.21961 8.126602,-7.172 11.201921,-11.572882 1.732822,-2.479724 3.953805,-8.16939 3.953805,-8.16939 z"
         transform="matrix(1.6465745,0.6820335,-0.6820335,1.6465745,37.528298,-156.82889)" />
      <path
         id="path13"
         style="display:inline;fill:#ffffff;fill-opacity:1;stroke-width:0.82286"
         d="m 131.65942,66.31538 c -0.0974,20.977886 0.52365,39.04531 5.06265,40.83515 4.53872,1.78976 17.32126,-10.990346 31.56708,-26.387544 -6.59752,-1.97737 -18.34996,-5.174773 -19.01484,-5.436984 -0.66508,-0.262289 -11.44467,-5.952914 -17.61489,-9.010622 z m -8.42476,0.147511 c -6.06331,3.266897 -16.63648,9.317325 -17.29203,9.602051 -0.65573,0.284796 -12.300324,3.881786 -18.825594,6.082689 14.765044,14.902761 27.978304,27.239109 32.453544,25.295139 4.4749,-1.94382 4.47823,-20.019104 3.66408,-40.979879 z m 51.11631,20.154566 c -14.90214,14.764493 -27.23765,27.977063 -25.29375,32.452153 1.94382,4.47491 20.01911,4.47822 40.97988,3.66408 -3.2669,-6.06331 -9.31732,-16.63509 -9.60204,-17.29065 -0.2848,-0.65573 -3.88319,-12.300366 -6.08409,-18.825583 z m -93.087009,1.593381 c -1.977372,6.597518 -5.176166,18.349962 -5.438382,19.014852 -0.262285,0.66507 -5.951515,11.44466 -9.009226,17.61488 20.977886,0.0974 39.045307,-0.52365 40.835147,-5.06264 1.78976,-4.53873 -10.990346,-17.32127 -26.387539,-31.567092 z M 186.49269,131.12644 c -19.39987,-9.5e-4 -35.45662,0.81746 -37.14323,5.09466 -1.7898,4.53887 10.99111,17.32212 26.38893,31.56848 1.9774,-6.59759 5.1734,-18.35137 5.4356,-19.01624 0.26231,-0.66509 5.95304,-11.44484 9.01063,-17.6149 -1.20996,-0.006 -2.5045,-0.0319 -3.69193,-0.032 z m -119.530218,2.13889 c 3.266896,6.06331 9.317325,16.63648 9.60205,17.29204 0.2848,0.65574 3.883187,12.3004 6.084083,18.82558 14.902763,-14.76504 27.239105,-27.9783 25.295135,-32.45353 -2.05271,-4.72556 -21.928403,-4.40417 -40.981268,-3.66409 z m 71.678608,15.08915 c -0.45514,-0.0168 -0.85926,0.0491 -1.21069,0.20178 -4.47501,1.94386 -4.47829,20.01991 -3.66409,40.98126 6.06331,-3.2669 16.63509,-9.31733 17.29065,-9.60204 0.65576,-0.28482 12.30198,-3.88322 18.82698,-6.08409 -13.6056,-13.73251 -25.90193,-25.29926 -31.24285,-25.49691 z m -19.57983,0.33537 c -5.33081,0.38006 -17.22322,12.35892 -30.350831,26.54757 6.597578,1.97739 18.351361,5.17479 19.016241,5.437 0.66508,0.2623 11.44483,5.95163 17.61488,9.00923 0.0974,-20.97789 -0.52365,-39.04531 -5.06264,-40.83516 -0.35644,-0.14053 -0.76335,-0.19103 -1.21765,-0.15864 z" />
      <circle
         style="display:inline;fill:#ffffff;fill-opacity:1;stroke-width:0.676875"
         id="path14"
         cx="128.50049"
         cy="127.99951"
         r="17.028425" />
    </g>
  </g>
</svg>
