 <svg  version="1.0" xmlns="http://www.w3.org/2000/svg"  width="256.000000pt" height="256.000000pt" viewBox="0 0 256.000000 256.000000"  preserveAspectRatio="xMidYMid meet">  <g transform="translate(0.000000,256.000000) scale(0.100000,-0.100000)" fill="#ffffff" stroke="none"> <path d="M1216 2291 c-64 -65 -74 -71 -138 -85 -95 -21 -210 -69 -294 -122 l-72 -44 -96 0 -96 0 0 -102 c0 -93 -2 -104 -26 -135 -44 -58 -114 -218 -131 -300 -16 -76 -18 -80 -90 -153 l-73 -75 73 -73 c68 -67 74 -77 86 -135 19 -91 65 -205 116 -283 l45 -69 0 -102 0 -103 101 0 100 0 72 -43 c85 -52 182 -92 275 -114 61 -14 73 -22 137 -84 39 -38 75 -69 80 -69 5 0 41 31 80 69 64 62 76 70 137 84 93 22 190 62 275 114 l72 43 100 0 101 0 0 101 c0 94 2 103 29 142 61 90 122 238 136 331 6 37 18 54 81 117 l74 74 -73 75 c-69 70 -74 79 -86 140 -17 87 -70 216 -120 291 l-41 61 0 99 0 99 -96 0 -96 0 -72 44 c-84 53 -197 100 -292 121 -64 15 -74 21 -139 86 l-71 69 -68 -69z m230 -255 c95 -20 164 -48 250 -102 64 -39 78 -44 133 -44 l61 0 0 -60 c0 -54 4 -66 49 -135 49 -75 94 -190 107 -275 6 -33 18 -56 51 -91 23 -25 43 -50 43 -55 0 -4 -19 -29 -43 -54 -36 -38 -46 -55 -56 -110 -16 -84 -60 -189 -111 -265 -35 -53 -40 -67 -40 -117 l0 -58 -60 0 c-54 0 -66 -4 -121 -41 -70 -48 -177 -92 -266 -109 -51 -10 -68 -19 -104 -56 -24 -24 -48 -44 -54 -44 -6 0 -30 20 -54 44 -36 37 -53 46 -104 56 -91 18 -188 57 -263 106 -60 39 -73 44 -125 44 l-59 0 0 58 c0 50 -5 64 -40 117 -51 76 -95 181 -111 265 -10 55 -20 72 -56 110 -24 25 -43 50 -43 54 0 5 20 30 43 55 33 35 45 58 51 91 13 85 58 200 107 275 45 69 49 81 49 135 l0 60 61 0 c55 0 68 5 142 49 87 52 166 83 258 101 46 9 63 19 99 55 l44 45 46 -45 c39 -38 55 -46 116 -59z"/> <path d="M1155 1945 c-33 -7 -86 -23 -118 -35 -59 -22 -178 -97 -184 -115 -2 -6 55 -68 126 -139 l128 -128 62 23 61 24 0 193 c0 105 -3 192 -7 191 -5 0 -35 -7 -68 -14z"/> <path d="M1340 1767 l0 -192 62 -24 61 -23 131 131 c130 130 131 131 111 150 -57 56 -219 127 -327 144 l-38 6 0 -192z"/> <path d="M729 1668 c-60 -84 -118 -238 -119 -315 l0 -23 190 0 189 0 10 38 c6 21 17 46 25 57 14 19 7 28 -117 153 -72 72 -135 132 -139 132 -4 0 -22 -19 -39 -42z"/> <path d="M1663 1578 c-124 -125 -131 -134 -117 -153 8 -11 19 -36 25 -57 l10 -38 189 0 190 0 0 23 c0 43 -31 151 -60 211 -31 65 -85 146 -98 146 -4 0 -67 -60 -139 -132z"/> <path d="M1226 1455 c-150 -53 -174 -241 -43 -332 33 -23 51 -28 102 -28 51 0 69 5 102 28 77 53 109 158 70 234 -22 43 -80 90 -124 102 -48 14 -59 13 -107 -4z"/> <path d="M610 1202 c0 -78 74 -262 135 -337 l25 -30 134 134 134 134 -24 51 c-13 28 -24 57 -24 64 0 9 -45 12 -190 12 l-190 0 0 -28z"/> <path d="M1580 1218 c0 -7 -11 -36 -24 -64 l-24 -51 134 -134 134 -134 25 30 c59 72 135 260 135 337 l0 28 -190 0 c-145 0 -190 -3 -190 -12z"/> <path d="M979 894 l-134 -135 25 -20 c76 -60 215 -120 313 -134 l47 -7 0 191 c0 174 -2 192 -17 197 -10 3 -36 14 -59 24 l-41 18 -134 -134z"/> <path d="M1415 1010 c-22 -10 -48 -21 -57 -24 -16 -5 -18 -23 -18 -197 l0 -191 48 7 c97 14 236 74 312 134 l25 20 -135 135 -135 134 -40 -18z"/> </g> </svg> 